<svg width="50" height="50" viewBox="0 0 50 50" fill="none" xmlns="http://www.w3.org/2000/svg">
<path d="M17.9314 46.5807C17.8142 46.5807 17.697 46.5256 17.6267 46.4234C14.931 42.8234 9.94604 41.7386 9.89916 41.7229C9.68819 41.6758 9.55536 41.4714 9.60225 41.267C9.64913 41.0548 9.85228 40.9212 10.0554 40.9683C10.2742 41.0155 15.3686 42.1238 18.2439 45.9597C18.3689 46.1326 18.3377 46.3763 18.1658 46.502C18.0955 46.5571 18.0095 46.5807 17.9314 46.5807Z" fill="#005226"/>
<path d="M31.9878 46.4628C31.9096 46.4628 31.8237 46.4392 31.7534 46.3842C31.5815 46.2584 31.5502 46.0147 31.6752 45.8418C34.5506 42.0295 39.7231 41.0077 39.9419 40.9684C40.1528 40.9291 40.3482 41.0705 40.3872 41.2749C40.4263 41.4871 40.2856 41.6837 40.0825 41.7308C40.0278 41.7387 34.9725 42.7369 32.2847 46.3134C32.2144 46.4156 32.105 46.4628 31.9878 46.4628Z" fill="#005226"/>
<path d="M15.2904 49.9291C15.1654 49.9291 15.0404 49.8663 14.9701 49.7562C14.8529 49.5754 14.9076 49.3396 15.0873 49.2217C16.5328 48.2785 17.7985 46.109 19.08 42.391C19.5253 41.0941 20.7208 40.2216 22.0491 40.2216H27.706C28.964 40.2216 30.0891 40.984 30.5892 42.1631C31.8159 45.0793 33.1911 47.9562 34.9569 49.2296C35.1288 49.3553 35.1679 49.599 35.0428 49.7719C34.9178 49.9449 34.6756 49.9842 34.5037 49.8584C32.5816 48.475 31.1439 45.488 29.8781 42.4696C29.5031 41.5735 28.6514 40.9997 27.706 40.9997H22.0491C21.0489 40.9997 20.1426 41.66 19.8066 42.6426C18.4705 46.5335 17.1031 48.8287 15.5092 49.8663C15.4389 49.9134 15.3607 49.9291 15.2904 49.9291Z" fill="#005226"/>
<path d="M34.0818 50H15.9155C15.2123 50 14.5325 49.7799 13.9543 49.3712C12.7901 48.5458 11.8056 47.3904 11.0086 45.9283C9.9382 43.9554 9.40689 41.5815 9.48502 39.074L10.157 15.8544L1.91378 14.3767C1.75751 14.3452 1.64031 14.2273 1.60124 14.078L0.00730013 6.54771C-0.0239537 6.38265 0.0463674 6.21758 0.194823 6.13111L10.7977 0.0550228C10.8524 0.0235812 10.9149 0 10.9852 0H10.993H16.5718C16.6421 0 16.7047 0.0157208 16.7672 0.0550228C22.3772 3.34067 27.8935 3.34067 33.613 0.0550228C33.6677 0.0235812 33.738 0.0078604 33.8005 0.0078604H39.0042C39.2152 0.0078604 39.3793 0.172929 39.3871 0.38516L40.5122 39.0819C40.5826 41.5894 40.0591 43.9632 38.9886 45.9362C38.1838 47.4218 37.2228 48.5458 36.0429 49.379C35.4648 49.7878 34.785 50 34.0818 50ZM10.9383 15.5557L10.2586 39.1055C10.1882 41.4793 10.6883 43.7117 11.6884 45.5667C12.4307 46.9423 13.3214 47.9799 14.3997 48.7423C14.845 49.0568 15.3686 49.2297 15.9155 49.2297H34.0896C34.6365 49.2297 35.16 49.0646 35.6054 48.7423C36.6837 47.9799 37.5666 46.9423 38.3167 45.5667C39.3246 43.7117 39.8168 41.4793 39.7465 39.1055L38.6292 0.77818H33.9021C28.0654 4.09527 22.1975 4.09527 16.4702 0.77818H11.3681L10.9383 15.5321C10.9383 15.54 10.9383 15.5479 10.9383 15.5557ZM2.29664 13.6614L10.1804 15.0762L10.5867 1.07687L0.819899 6.66562L2.29664 13.6614Z" fill="#005226"/>
<path d="M39.4496 16.1139C39.2699 16.1139 39.1058 15.9803 39.0746 15.7916C39.0355 15.5794 39.1761 15.3829 39.3871 15.3436L47.7084 13.8423L49.193 6.78363L38.8089 0.72326C38.6214 0.613214 38.5589 0.377402 38.6683 0.196613C38.7777 0.00796359 39.0121 -0.0549196 39.1918 0.055126L49.8103 6.25698C49.9509 6.34344 50.029 6.50851 49.99 6.67358L48.396 14.2589C48.3648 14.4161 48.2397 14.534 48.0913 14.5576L39.5121 16.1061C39.4965 16.1061 39.4731 16.1139 39.4496 16.1139Z" fill="#005226"/>
<path d="M25.1432 10.3756C23.1039 10.3756 21.0489 9.74677 19.3847 8.52841C16.8219 6.64978 15.6576 3.66282 16.189 0.337874C16.2202 0.125644 16.4234 -0.0158436 16.6265 0.015598C16.8375 0.0470396 16.9781 0.25141 16.9469 0.45578C16.4546 3.5292 17.4782 6.17029 19.83 7.89958C22.471 9.8411 26.1667 10.1555 29.0265 8.69348C31.8549 7.24717 33.4098 4.29952 33.4098 0.400758C33.4098 0.188527 33.5817 0.015598 33.7927 0.015598C34.0036 0.015598 34.1755 0.188527 34.1755 0.400758C34.1755 4.61393 32.4722 7.80525 29.3781 9.38519C28.081 10.0455 26.6199 10.3756 25.1432 10.3756Z" fill="#005226"/>
<path d="M25.0182 19.2738C23.7133 19.2738 22.6507 18.2048 22.6507 16.8921C22.6507 15.5794 23.7133 14.5104 25.0182 14.5104C26.323 14.5104 27.3856 15.5794 27.3856 16.8921C27.3856 18.2048 26.323 19.2738 25.0182 19.2738ZM25.0182 15.2807C24.1353 15.2807 23.4164 16.0039 23.4164 16.8921C23.4164 17.7803 24.1353 18.5035 25.0182 18.5035C25.9011 18.5035 26.6199 17.7803 26.6199 16.8921C26.6199 16.0039 25.9011 15.2807 25.0182 15.2807Z" fill="#005226"/>
<path d="M20.627 20.1226C20.4239 20.1226 20.2129 20.099 20.0019 20.0518C19.5566 19.9496 19.1737 19.6195 18.9862 19.1636C18.2127 17.2928 18.2986 15.7129 19.244 14.3452C19.6191 13.7242 20.1348 13.5513 20.4942 13.5198C21.924 13.4098 23.5492 15.2177 23.729 15.4221C23.8696 15.5871 23.854 15.8308 23.6899 15.9644C23.5258 16.1059 23.2914 16.0902 23.1508 15.9251C22.7366 15.4456 21.4552 14.2273 20.5645 14.2823C20.291 14.3059 20.0723 14.4552 19.8925 14.7539C19.0956 15.9094 19.0331 17.2457 19.6972 18.857C19.791 19.0771 19.9707 19.2422 20.166 19.2894C21.1505 19.5016 22.0959 19.0378 23.1508 17.8352C23.2914 17.678 23.5336 17.6623 23.6899 17.8038C23.8462 17.9452 23.8618 18.1889 23.7211 18.3461C22.6898 19.5409 21.6662 20.1226 20.627 20.1226Z" fill="#005226"/>
<path d="M29.4093 20.1226C28.3623 20.1226 27.3466 19.5409 26.3074 18.354C26.1668 18.1968 26.1824 17.9452 26.3386 17.8116C26.4949 17.6701 26.7371 17.6858 26.8778 17.8431C27.9326 19.0536 28.8858 19.5173 29.8625 19.2972C30.0579 19.2501 30.2454 19.0929 30.3313 18.8649C30.9955 17.2535 30.933 15.9173 30.1516 14.7775C29.9563 14.4552 29.7453 14.3059 29.464 14.2823C28.5733 14.2273 27.2919 15.4378 26.8778 15.9251C26.7371 16.0902 26.4949 16.1059 26.3386 15.9644C26.1824 15.8229 26.1589 15.5793 26.2996 15.4221C26.4793 15.2177 28.0889 13.4098 29.5343 13.5198C29.8938 13.5513 30.4095 13.7242 30.8001 14.3609C31.7377 15.7129 31.8159 17.2928 31.0502 19.1636C30.8626 19.6195 30.4798 19.9575 30.0344 20.0518C29.8234 20.099 29.6125 20.1226 29.4093 20.1226Z" fill="#005226"/>
<path d="M15.6342 23.6127C15.6107 23.6127 15.5873 23.6127 15.5638 23.6049C15.3529 23.5656 15.2201 23.3612 15.2591 23.1568C15.6732 20.9245 16.8999 18.9043 18.7127 17.4502C18.8768 17.3165 19.119 17.348 19.2518 17.5131C19.3846 17.6781 19.3534 17.9218 19.1893 18.0554C17.5172 19.3838 16.3921 21.2467 16.017 23.2904C15.978 23.4791 15.8139 23.6127 15.6342 23.6127Z" fill="#005226"/>
<path d="M25.0182 34.4599C20.1348 34.4599 15.9155 30.9463 15.2045 26.2772C15.1732 26.065 15.3139 25.8685 15.5248 25.837C15.7358 25.8056 15.9311 25.9471 15.9624 26.1593C16.6187 30.4511 20.5098 33.6817 25.0104 33.6817C29.5031 33.6817 33.3004 30.5847 34.0349 26.3086C34.074 26.0964 34.2693 25.9549 34.4803 25.9942C34.6912 26.0335 34.8319 26.23 34.7928 26.4423C34.0036 31.0878 29.8938 34.4599 25.0182 34.4599Z" fill="#005226"/>
<path d="M34.4021 23.6284C34.2224 23.6284 34.0583 23.4948 34.0271 23.314C33.652 21.2625 32.5269 19.3995 30.8548 18.0554C30.6907 17.9218 30.6595 17.6781 30.7923 17.5131C30.9251 17.348 31.1674 17.3165 31.3314 17.4502C33.152 18.9043 34.3787 20.9402 34.785 23.1725C34.8241 23.3848 34.6834 23.5813 34.4725 23.6206C34.449 23.6284 34.4256 23.6284 34.4021 23.6284Z" fill="#005226"/>
<path d="M14.7513 26.8904C13.6886 26.8904 12.8214 25.9079 12.8214 24.7052C12.8214 23.5026 13.6886 22.52 14.7513 22.52C15.1576 22.52 15.5404 22.6615 15.8686 22.9209C16.0327 23.0545 16.0639 23.2982 15.9311 23.4633C15.7983 23.6283 15.5561 23.6598 15.392 23.5262C15.1966 23.3768 14.9779 23.2903 14.7513 23.2903C14.1106 23.2903 13.5949 23.9192 13.5949 24.6974C13.5949 25.4755 14.1184 26.1122 14.7513 26.1122C14.9622 26.1122 15.1732 26.0415 15.3529 25.9079C15.5248 25.7821 15.767 25.8135 15.892 25.9865C16.0171 26.1594 15.9858 26.4031 15.8139 26.5288C15.5014 26.7646 15.1341 26.8904 14.7513 26.8904Z" fill="#005226"/>
<path d="M35.3397 27.0711C34.9256 27.0711 34.5271 26.9375 34.1911 26.6859C34.0192 26.5602 33.9802 26.3165 34.1052 26.1436C34.2302 25.9706 34.4724 25.9313 34.6443 26.0571C34.8475 26.2065 35.0897 26.2929 35.3397 26.2929C36.0586 26.2929 36.6524 25.6248 36.6524 24.7994C36.6524 23.9741 36.0664 23.306 35.3397 23.306C35.0897 23.306 34.8397 23.3924 34.6287 23.5496C34.4568 23.6754 34.2146 23.6361 34.0896 23.471C33.9646 23.2981 34.0036 23.0544 34.1677 22.9287C34.5115 22.6693 34.9178 22.5356 35.3397 22.5356C36.4883 22.5356 37.4181 23.5496 37.4181 24.7994C37.4259 26.0571 36.4883 27.0711 35.3397 27.0711Z" fill="#005226"/>
<path d="M23.0335 23.9034C22.8226 23.9034 22.6507 23.7305 22.6507 23.5183C22.6507 22.9209 22.1663 22.4414 21.5802 22.4414C20.9864 22.4414 20.5098 22.9287 20.5098 23.5183C20.5098 23.7305 20.3379 23.9034 20.1269 23.9034C19.916 23.9034 19.7441 23.7305 19.7441 23.5183C19.7441 22.4964 20.5723 21.6632 21.5881 21.6632C22.6038 21.6632 23.432 22.4964 23.432 23.5183C23.4164 23.7305 23.2445 23.9034 23.0335 23.9034Z" fill="#005226"/>
<path d="M30.0266 23.9034C29.8156 23.9034 29.6437 23.7305 29.6437 23.5183C29.6437 22.9209 29.1593 22.4414 28.5733 22.4414C27.9795 22.4414 27.5028 22.9287 27.5028 23.5183C27.5028 23.7305 27.3309 23.9034 27.12 23.9034C26.909 23.9034 26.7371 23.7305 26.7371 23.5183C26.7371 22.4964 27.5653 21.6632 28.5811 21.6632C29.5968 21.6632 30.4251 22.4964 30.4251 23.5183C30.4094 23.7305 30.2375 23.9034 30.0266 23.9034Z" fill="#005226"/>
<path d="M25.0963 29.6257C23.4399 29.6257 22.0959 28.3052 22.0959 26.6859C22.0959 26.4737 22.2678 26.3008 22.4788 26.3008C22.6898 26.3008 22.8617 26.4737 22.8617 26.6859C22.8617 27.8807 23.8618 28.8554 25.0885 28.8554C26.3152 28.8554 27.3231 27.8807 27.3231 26.6859C27.3231 26.4737 27.495 26.3008 27.706 26.3008C27.917 26.3008 28.0889 26.4737 28.0889 26.6859C28.0967 28.3052 26.745 29.6257 25.0963 29.6257Z" fill="#005226"/>
</svg>
