<svg width="60" height="60" viewBox="0 0 60 60" fill="none" xmlns="http://www.w3.org/2000/svg">
<mask id="mask0_0_385" style="mask-type:alpha" maskUnits="userSpaceOnUse" x="0" y="0" width="60" height="60">
<rect width="60" height="60" fill="#005226"/>
</mask>
<g mask="url(#mask0_0_385)">
<path d="M49.3308 36.2018H35.5615V26.5691C35.5615 26.2369 35.4769 25.9209 35.3462 25.6374C35.3308 25.5969 35.3154 25.5564 35.2846 25.524C34.9385 24.9001 34.3077 24.4789 33.5769 24.4789H31.8462C31.6923 23.4824 30.8769 22.7208 29.8923 22.7208H10.6692C9.68462 22.7208 8.86923 23.4824 8.71538 24.4789H6.99231C6.27692 24.4789 5.65385 24.8839 5.30769 25.4835C5.25385 25.5402 5.21538 25.6131 5.2 25.686C5.07692 25.9533 5 26.2531 5 26.5691V42.9099C5 44.0603 5.89231 45.0001 6.98462 45.0001H28.8692C28.8769 45.0001 28.8846 45.0001 28.8923 45.0001H35.2692C35.7769 45.0001 36.2462 44.6841 36.4538 44.2061L38.5308 39.3776H38.9923L41.0692 44.2061C41.2769 44.6922 41.7385 45.0001 42.2462 45.0001H48.6308C49.2769 45.0001 49.8231 44.4897 49.9154 43.801L50.6231 37.7249C50.6692 37.336 50.5462 36.9471 50.3 36.6555C50.0462 36.3719 49.6923 36.2018 49.3308 36.2018ZM10.6692 23.531H29.8769C30.4385 23.531 30.9077 23.9361 31.0462 24.4789H9.5C9.64615 23.9361 10.1154 23.531 10.6692 23.531ZM5.76923 42.9099V27.3873C7.29231 30.6927 10.3385 33.4149 14.1769 34.8164C14.2154 34.8326 14.2615 34.8407 14.3 34.8407C14.4615 34.8407 14.6077 34.7354 14.6615 34.5653C14.7308 34.3546 14.6231 34.1197 14.4231 34.0468C10.3154 32.5399 7.17692 29.4775 5.99231 25.8237C6.21538 25.4916 6.57692 25.2809 6.98462 25.2809H33.5615C33.9692 25.2809 34.3231 25.4916 34.5462 25.8156C33.4308 29.2912 30.6308 32.1834 26.8231 33.7794C26.6231 33.8604 26.5308 34.0954 26.6077 34.306C26.6692 34.4681 26.8154 34.5653 26.9615 34.5653C27.0077 34.5653 27.0538 34.5572 27.1077 34.5329C30.6538 33.0503 33.3769 30.4821 34.7846 27.363V36.2018H28.1846C27.8154 36.2018 27.4615 36.3719 27.2154 36.6636C26.9692 36.9552 26.8615 37.3441 26.9077 37.7249L27.6154 43.801C27.6308 43.9388 27.6692 44.0684 27.7231 44.1899H6.99231C6.31538 44.1899 5.76923 43.6147 5.76923 42.9099ZM49.1385 43.7038C49.1 43.9874 48.8769 44.198 48.6231 44.198H42.2385C42.0385 44.198 41.8461 44.0684 41.7692 43.8739L39.5923 38.8105C39.5308 38.6647 39.3923 38.5755 39.2385 38.5755H38.2846C38.1308 38.5755 38 38.6728 37.9308 38.8105L35.7538 43.8739C35.6692 44.0765 35.4846 44.198 35.2769 44.198H29.2538C29.2462 44.198 29.2462 44.198 29.2462 44.198H28.8923C28.6308 44.1899 28.4154 43.9874 28.3846 43.7119L27.6769 37.6358C27.6615 37.4818 27.7 37.3279 27.8 37.2145C27.9 37.093 28.0385 37.0281 28.1923 37.0281H49.3308C49.4846 37.0281 49.6154 37.093 49.7154 37.2064C49.8154 37.3279 49.8615 37.4818 49.8461 37.6439L49.1385 43.7038Z" fill="#005226"/>
<path d="M52.9462 31.033H52.6077L50.4154 22.7532C50.1692 21.8215 49.3539 21.1653 48.4385 21.1653H42.5C41.5692 21.1653 40.7692 21.7972 40.5154 22.7532L38.3308 31.033H37.9846C36.8539 31.033 35.9308 32.0051 35.9308 33.1961V34.2817C35.9308 34.7435 36.2923 35.1242 36.7308 35.1242H54.2C54.6385 35.1242 55 34.7435 55 34.2817V33.1961C55 32.0051 54.0769 31.033 52.9462 31.033ZM44.0616 31.033H44C43.8846 31.033 43.7923 30.9357 43.7923 30.8142V29.7691C43.7923 29.6476 43.8846 29.5504 44 29.5504H47.0308C47.1462 29.5504 47.2385 29.6476 47.2385 29.7691V29.8825H46.2385C46.0231 29.8825 45.8539 30.0608 45.8539 30.2876C45.8539 30.5145 46.0231 30.6927 46.2385 30.6927H47.2385V30.8061C47.2385 30.9276 47.1462 31.0249 47.0308 31.0249H46.8616H44.0616V31.033ZM48.0077 30.8223V30.7008C48.2154 30.6927 48.3846 30.5145 48.3846 30.2957C48.3846 30.077 48.2154 29.8987 48.0077 29.8906V29.7691C48.0077 29.6881 47.9846 29.6152 47.9616 29.5423H51.4077L51.8 31.0249H47.9616C47.9846 30.9681 48.0077 30.8952 48.0077 30.8223ZM41.2539 22.9719C41.4154 22.3805 41.9154 21.9754 42.5 21.9754H48.4385C49.0154 21.9754 49.5231 22.3805 49.6769 22.9638L51.2 28.7402H46.8616C46.8462 28.7402 46.8385 28.7483 46.8231 28.7483H44.1077C44.0923 28.7483 44.0846 28.7402 44.0692 28.7402H39.7308L41.2539 22.9719ZM39.5154 29.5504H43.0692C43.0539 29.6233 43.0231 29.6962 43.0231 29.7772V30.8223C43.0231 30.8952 43.0462 30.9681 43.0616 31.0411H39.1231L39.5154 29.5504ZM54.2 34.3141L36.7 34.2817V33.1961C36.7 32.4507 37.2769 31.8431 37.9846 31.8431H38.6231H44H44.0616H46.8692H47.0385H52.3154H52.9462C53.6539 31.8431 54.2308 32.4507 54.2308 33.1961L54.2 34.3141Z" fill="#005226"/>
<path d="M23.7307 33.6416C24.4461 32.6289 24.2538 31.7783 24.1461 31.4704C23.8615 30.6684 23.0692 30.1904 22.2692 30.3281C21.9615 30.3767 21.1692 30.636 20.6923 31.8026C20.2153 30.636 19.423 30.3848 19.1153 30.3281C18.3153 30.1904 17.5307 30.6684 17.2461 31.4623C17.1384 31.7702 16.9461 32.6208 17.6538 33.6416C16.4615 33.5039 15.8538 34.1034 15.6615 34.3546C15.1461 35.0108 15.1538 35.9668 15.6615 36.6311C15.8384 36.8579 16.3384 37.3602 17.3 37.3602C17.4076 37.3602 17.5307 37.344 17.6538 37.3359C16.9384 38.3567 17.1307 39.2155 17.2384 39.5153C17.4923 40.2201 18.1384 40.6738 18.8307 40.6738C18.923 40.6738 19.0153 40.6657 19.1076 40.6495C19.4153 40.5928 20.2076 40.3416 20.6846 39.175C21.1615 40.3416 21.9615 40.5928 22.2692 40.6495C22.3615 40.6657 22.4538 40.6738 22.5461 40.6738C23.2461 40.6738 23.8923 40.2201 24.1461 39.5071C24.2538 39.1993 24.4461 38.3486 23.723 37.3278C23.8461 37.344 23.9692 37.3521 24.0846 37.3521C25.0461 37.3521 25.5461 36.8498 25.723 36.623C26.2384 35.9668 26.2384 35.0108 25.723 34.3465C25.523 34.0953 24.923 33.4958 23.7307 33.6416ZM20.6923 36.5987C20.1076 36.5987 19.6307 36.0964 19.6307 35.4807C19.6307 34.865 20.1076 34.3627 20.6923 34.3627C21.2769 34.3627 21.7538 34.865 21.7538 35.4807C21.7538 36.0964 21.2769 36.5987 20.6923 36.5987ZM22.3923 31.1302C22.8307 31.0491 23.2692 31.3165 23.423 31.7621C23.623 32.3292 23.3461 33.2528 22.0307 34.1844C21.7846 33.9009 21.4615 33.6983 21.1 33.6173C21.2076 31.9403 21.823 31.2274 22.3923 31.1302ZM17.9615 31.754C18.123 31.3165 18.5538 31.0572 18.9846 31.1302C19.5538 31.2274 20.1692 31.9403 20.2769 33.6092C19.9153 33.6983 19.5923 33.9009 19.3461 34.1844C18.0307 33.2447 17.7538 32.3211 17.9615 31.754ZM16.2538 36.1126C15.9692 35.748 15.9692 35.2295 16.2538 34.865C16.6153 34.3951 17.5153 34.1844 18.9538 34.9217C18.9 35.0999 18.8615 35.2862 18.8615 35.4888C18.8615 35.6832 18.9 35.8777 18.9538 36.0559C17.523 36.7931 16.623 36.5825 16.2538 36.1126ZM18.9846 39.8474C18.5461 39.9203 18.1153 39.6611 17.9615 39.2236C17.7538 38.6565 18.0307 37.7248 19.3461 36.785C19.5923 37.0686 19.9153 37.2711 20.2769 37.3602C20.1769 39.0292 19.5538 39.7421 18.9846 39.8474ZM23.423 39.2155C23.2692 39.653 22.8307 39.9122 22.3923 39.8393C21.823 39.7421 21.2 39.0292 21.0923 37.3602C21.4538 37.2711 21.7769 37.0686 22.023 36.7931C23.3538 37.7248 23.6307 38.6484 23.423 39.2155ZM25.1307 36.1126C24.7692 36.5825 23.8692 36.7931 22.4384 36.0478C22.4923 35.8696 22.5307 35.6832 22.5307 35.4888C22.5307 35.2944 22.4923 35.0999 22.4384 34.9217C23.8692 34.1844 24.7692 34.3951 25.1307 34.865C25.4076 35.2214 25.4076 35.748 25.1307 36.1126Z" fill="#005226"/>
<path d="M48.4538 37.9678H40.8153C40.6845 37.9678 40.5615 38.0407 40.4922 38.1541C40.423 38.2675 40.4153 38.4134 40.4615 38.543L42.3768 42.9988C42.4384 43.1447 42.5768 43.2338 42.7307 43.2338H47.9384C48.1307 43.2338 48.2999 43.0798 48.323 42.8773L48.8384 38.4215C48.8538 38.308 48.8153 38.1946 48.7461 38.1055C48.6692 38.0164 48.5692 37.9678 48.4538 37.9678ZM47.5999 42.4236H42.9845L41.4153 38.7779H48.023L47.5999 42.4236Z" fill="#005226"/>
<path d="M36.7 37.9678H29.0616C28.9539 37.9678 28.8462 38.0164 28.7769 38.1055C28.7077 38.1946 28.6693 38.308 28.6846 38.4215L29.2 42.8773C29.2231 43.0798 29.3846 43.2338 29.5846 43.2338H34.7923C34.9462 43.2338 35.0769 43.1366 35.1462 42.9988L37.0616 38.543C37.1154 38.4215 37.1077 38.2756 37.0308 38.1541C36.9539 38.0407 36.8308 37.9678 36.7 37.9678ZM34.5308 42.4236H29.9154L29.4923 38.7779H36.1L34.5308 42.4236Z" fill="#005226"/>
<path d="M5.5 19.6098C6.00769 19.7313 6.52308 19.7718 7.03077 19.788C7.03846 19.8123 7.04615 19.8366 7.06154 19.8609C6.87692 20.0877 6.70769 20.3308 6.57692 20.6143C6.84615 20.4766 7.07692 20.2903 7.29231 20.1039C7.31538 20.112 7.33846 20.1283 7.36154 20.1364C7.38462 20.6711 7.42308 21.2139 7.53077 21.7486C7.64615 21.2139 7.68462 20.6711 7.7 20.1364C7.72308 20.1283 7.74615 20.1202 7.76923 20.1039C7.98462 20.2984 8.21538 20.4766 8.48462 20.6143C8.35385 20.3308 8.17692 20.0877 8 19.8609C8.01538 19.8366 8.02308 19.8123 8.03077 19.788C8.53846 19.7637 9.05385 19.7232 9.56154 19.6098C9.05385 19.4882 8.53846 19.4477 8.03077 19.4315C8.02308 19.4072 8.01538 19.3829 8 19.3586C8.18462 19.1318 8.35385 18.8887 8.48462 18.6052C8.21538 18.7429 7.98462 18.9292 7.76923 19.1156C7.74615 19.0994 7.72308 19.0913 7.7 19.0832C7.67692 18.5485 7.63846 18.0056 7.53077 17.4709C7.41538 18.0056 7.37692 18.5485 7.36154 19.0832C7.33846 19.0913 7.31538 19.0994 7.29231 19.1156C7.07692 18.9211 6.84615 18.7429 6.57692 18.6052C6.70769 18.8887 6.88462 19.1318 7.06154 19.3586C7.04615 19.3829 7.03846 19.4072 7.03077 19.4315C6.52308 19.4477 6.00769 19.4882 5.5 19.6098Z" fill="#005226"/>
<path d="M33.6924 18.5972C34.2232 18.7187 34.7539 18.7592 35.2847 18.7755C35.2924 18.8079 35.3078 18.8322 35.3232 18.8646C35.1308 19.0995 34.9539 19.3507 34.8155 19.6423C35.0924 19.4965 35.3308 19.3021 35.5539 19.0995C35.5847 19.1157 35.6078 19.1238 35.6385 19.14C35.6616 19.699 35.7001 20.258 35.8078 20.8251C35.9232 20.2661 35.9616 19.7071 35.977 19.1481C36.0078 19.14 36.0308 19.1238 36.0616 19.1076C36.2847 19.3102 36.5232 19.4965 36.8001 19.6504C36.6616 19.3588 36.477 19.1076 36.2847 18.8727C36.3001 18.8403 36.3078 18.816 36.3232 18.7836C36.8539 18.7592 37.3847 18.7187 37.9155 18.6053C37.3847 18.4838 36.8539 18.4433 36.3232 18.4271C36.3155 18.3947 36.3001 18.3623 36.2847 18.338C36.477 18.103 36.6539 17.8519 36.8001 17.5602C36.5232 17.706 36.2847 17.9005 36.0616 18.103C36.0308 18.0868 36.0078 18.0787 35.977 18.0625C35.9539 17.5035 35.9155 16.9445 35.8078 16.3855C35.6924 16.9445 35.6539 17.5035 35.6385 18.0625C35.6078 18.0706 35.5847 18.0868 35.5539 18.103C35.3308 17.9005 35.0924 17.7141 34.8155 17.5602C34.9539 17.8519 35.1385 18.103 35.3232 18.338C35.3078 18.3704 35.3001 18.3947 35.2847 18.4271C34.7539 18.4433 34.2232 18.4838 33.6924 18.5972Z" fill="#005226"/>
<path d="M12.7693 16.6446C12.6616 16.7985 12.5693 16.9606 12.5077 17.155C12.6924 17.0902 12.8462 16.9849 12.9924 16.8796C13.0154 17.2279 13.0539 17.5763 13.1616 17.9328C13.2693 17.5844 13.3077 17.236 13.3308 16.8796C13.477 16.993 13.6308 17.0902 13.8154 17.155C13.7539 16.9606 13.6539 16.7985 13.5539 16.6446C13.8847 16.6203 14.2231 16.5798 14.5539 16.4664C14.2231 16.353 13.8847 16.3124 13.5539 16.2881C13.6616 16.1342 13.7539 15.9722 13.8154 15.7777C13.6308 15.8426 13.477 15.9479 13.3308 16.0532C13.3077 15.7048 13.2693 15.3484 13.1616 15C13.0539 15.3484 13.0154 15.6967 12.9924 16.0532C12.8462 15.9398 12.6924 15.8426 12.5077 15.7777C12.5693 15.9722 12.6693 16.1342 12.7693 16.2881C12.4385 16.3124 12.1077 16.353 11.7693 16.4664C12.1077 16.5798 12.4385 16.6203 12.7693 16.6446Z" fill="#005226"/>
</g>
</svg>
