<svg width="38" height="50" viewBox="0 0 38 50" fill="none" xmlns="http://www.w3.org/2000/svg">
<path d="M37.4049 44.9094L33.6261 33.6253C32.5571 30.1546 30.515 25.2992 28.2791 23.0371L26.2707 21.0054L27.9267 12.1923C28.1033 11.2539 28.0373 10.2798 27.7365 9.37503L26.7902 6.53036L26.7642 1.10996C26.7642 0.497833 26.2662 0 25.654 0H24.9696C24.3577 0 23.8597 0.497833 23.8597 1.10996V6.11139C23.8597 6.14651 23.8328 6.17916 23.8181 6.18502L19.2624 7.4142C18.9275 7.50384 18.5729 7.50446 18.238 7.4142L13.7074 6.19272C13.667 6.17916 13.6401 6.14651 13.6401 6.11139V1.10996C13.6401 0.497833 13.1421 0 12.5302 0H11.8458C11.2339 0 10.7359 0.497833 10.7359 1.10996V6.44687L9.76365 9.37503C9.4628 10.2798 9.39678 11.2539 9.57343 12.1923L11.2291 21.0054L9.22102 23.0371C6.98509 25.2992 4.94299 30.1546 3.87763 33.6142L0.0951993 44.9094C-0.0681925 45.397 -0.0196573 45.9334 0.228445 46.381C0.474739 46.8252 0.896181 47.1413 1.38455 47.2479C1.49458 47.2719 1.61471 47.2923 1.72625 47.3158C1.79544 47.7519 2.08153 48.1388 2.51774 48.3013C5.19833 49.2996 11.455 50 18.7499 50C26.0451 50 32.3016 49.2996 34.9824 48.3013C35.4186 48.1388 35.7045 47.7519 35.7737 47.3158C35.8852 47.2923 36.0052 47.2719 36.1153 47.2479C36.6036 47.1413 37.0248 46.8255 37.2714 46.3813C37.5195 45.9337 37.5683 45.3974 37.4049 44.9094ZM36.4655 45.9146C36.348 46.1269 36.1547 46.2716 35.9217 46.3225C35.8219 46.3443 35.7128 46.3628 35.6118 46.3841C30.9211 47.3761 24.9547 47.9244 18.7499 47.9244C12.5454 47.9244 6.57932 47.3761 1.88829 46.3841C1.78715 46.3628 1.67802 46.3443 1.57809 46.3225C1.34506 46.2716 1.15182 46.1269 1.03425 45.9146C0.91668 45.7023 0.893769 45.4476 0.971245 45.2156L4.75729 33.9093C5.79462 30.5419 7.75683 25.85 9.87278 23.7099L11.4395 22.1248L11.8104 21.7492H12.3118H25.1882H25.6894L26.0605 22.1246L27.6273 23.7099C29.7433 25.85 31.7055 30.5419 32.7464 33.9204L36.5289 45.2156C36.6063 45.4476 36.5834 45.7023 36.4655 45.9146ZM10.4826 12.0136C10.3367 11.2364 10.391 10.4292 10.6403 9.6794L11.5688 6.8797C11.6306 6.74231 11.662 6.59659 11.662 6.44687V1.10996C11.662 1.01969 11.7446 0.946375 11.8458 0.946375H12.5302C12.6315 0.946375 12.7141 1.01969 12.7141 1.10996V6.11139C12.7141 6.55716 12.9977 6.95148 13.4454 7.09997L18.002 8.32915C18.4909 8.461 19.0089 8.461 19.4984 8.32915L24.08 7.09227C24.5021 6.95148 24.7858 6.55716 24.7858 6.11139V1.10996C24.7858 1.01969 24.8684 0.946375 24.9696 0.946375H25.654C25.7556 0.946375 25.8382 1.01969 25.8382 1.10996V6.44687C25.8382 6.58766 25.8656 6.72475 25.9198 6.85444L26.8598 9.6794C27.1091 10.4292 27.1634 11.2364 27.0175 12.0136L25.6398 19.3454H11.8602L10.4826 12.0136Z" fill="#005226"/>
</svg>
