<svg width="50" height="48" viewBox="0 0 50 48" fill="none" xmlns="http://www.w3.org/2000/svg">
<path d="M48.865 37.6329L44.0214 13.4465C42.9746 8.22997 38.7715 4.37464 33.5607 3.8475L32.9279 3.83174C31.8498 1.58149 28.7405 0 24.9749 0C21.1547 0 18.0063 1.6287 16.9751 3.93403L13.2642 4.76017C9.65827 5.55734 6.89951 8.45612 6.20969 11.983C5.57615 15.1283 8.50442 0.590783 0.0145246 42.7393C-0.0245292 42.9517 0.0145247 43.1642 0.139545 43.3373C0.170779 43.3766 0.194239 43.4159 0.241106 43.4553C0.342666 43.5654 0.483288 43.6441 0.647315 43.6756L6.64722 44.7535C6.6941 44.7614 6.74097 44.7692 6.78002 44.7692C7.14717 44.7692 7.4675 44.5096 7.54561 44.1398C12.0008 22.7514 10.4608 30.1445 10.7956 28.5374V42.7078C10.7956 42.9832 10.944 43.2428 11.1784 43.3845C15.7642 46.1147 20.3578 47.4837 24.9124 47.4916C24.9202 47.4995 24.928 47.4995 24.9437 47.4916H24.9597C24.9741 47.4924 24.9864 47.5 25.001 47.5C25.0157 47.5 25.0279 47.4924 25.0424 47.4916H25.1077C29.6311 47.4601 34.1388 46.0832 38.5762 43.3766C38.8106 43.235 38.9512 42.9832 38.9512 42.6999L38.9043 28.624C39.2362 30.2242 37.6922 22.7805 42.2011 44.5175C42.3026 44.9901 42.7817 45.2016 43.0917 45.1391L49.3416 44.1241C49.7848 44.0603 50.0768 43.6001 49.9822 43.1878C48.7977 37.2735 48.9044 37.7121 48.865 37.6329ZM24.9764 14.0723L22.988 11.3877L22.9906 11.3851L23.5062 10.8579C23.8031 10.5511 23.8031 10.0711 23.514 9.75637L20.4828 6.54623C21.7015 5.90892 23.2875 5.53122 24.9749 5.53122C26.6624 5.53122 28.2483 5.90104 29.4592 6.54623L26.428 9.75637C26.1389 10.0711 26.1389 10.5511 26.4358 10.8579L26.873 11.306L24.9764 14.0723ZM17.7642 5.94825C18.0513 6.25228 22.0017 10.4356 21.8656 10.2914L21.5062 10.6612L19.0844 13.1318L16.6001 8.18275C16.6426 8.10118 17.8066 5.86668 17.7642 5.94825ZM28.4436 10.6612L28.0764 10.2914C28.152 10.2114 32.2538 5.86787 32.1779 5.94825C32.2204 6.02983 33.418 8.3287 33.3419 8.18276L30.8576 13.1318L28.4436 10.6612ZM24.9749 1.57362C27.9749 1.57362 30.592 2.79316 31.4591 4.42186L30.5686 5.36603C29.0686 4.46907 27.0999 3.95762 24.9749 3.95762C22.8422 3.95762 20.8735 4.47693 19.3735 5.36603L18.4907 4.42973C19.35 2.79315 21.9672 1.57362 24.9749 1.57362ZM6.17063 43.0698L1.70982 42.2593L2.38168 38.9076L6.88941 39.6078L6.17063 43.0698ZM12.358 42.2515V20.9526C12.358 20.5514 12.0612 20.213 11.6627 20.1658C11.2565 20.1422 10.8971 20.394 10.8112 20.7874L7.20969 38.0657L2.69414 37.3654L7.74092 12.2899C8.33169 9.33315 10.6248 6.95227 13.6002 6.29445L16.1079 5.74367L15.0298 7.80511C14.9126 8.03326 14.9048 8.30079 15.022 8.52895L18.1782 14.8234C18.2954 15.0516 18.5063 15.209 18.7563 15.2483C18.7954 15.2483 18.8344 15.2562 18.8735 15.2562C19.0844 15.2562 19.2876 15.1696 19.436 15.0201L21.8734 12.5259L21.8782 12.5211L24.2198 15.6827V45.9337C24.2189 45.9337 24.218 45.9338 24.2171 45.9337C20.3032 45.7999 16.3657 44.5804 12.358 42.2515ZM38.8653 20.7244C38.7871 20.331 38.4121 20.0636 38.0215 20.1029C37.6231 20.1501 37.3184 20.4884 37.3184 20.8897L37.3887 42.2593C33.5069 44.5563 29.6484 45.7836 25.7823 45.9335V15.6666L27.9901 12.4469L30.5061 15.0201C30.6545 15.1696 30.8576 15.2562 31.0685 15.2562C31.1076 15.2562 31.1467 15.2483 31.1857 15.2483C31.4357 15.209 31.6467 15.0516 31.7638 14.8234L34.92 8.52896C35.0372 8.3008 35.0294 8.03327 34.9122 7.80511L33.6857 5.45257C38.0762 6.01122 41.5918 9.31577 42.4901 13.7612L47.1854 37.1608L42.4042 37.7903L38.8653 20.7244ZM42.7245 39.3403L47.4901 38.703L48.2948 42.6999L43.5839 43.4632L42.7245 39.3403Z" fill="#005226"/>
</svg>
